<svg width="21" height="21" viewBox="0 0 21 21" fill="none" xmlns="http://www.w3.org/2000/svg">
<path d="M20.2663 10.7215C20.2663 9.90207 20.1999 9.30413 20.056 8.68406H10.6993V12.3824H16.1915C16.0808 13.3015 15.4828 14.6856 14.1541 15.6157L14.1354 15.7395L17.0938 18.0313L17.2988 18.0518C19.1812 16.3133 20.2663 13.7554 20.2663 10.7215Z" fill="#4285F4"/>
<path d="M10.6993 20.4657C13.39 20.4657 15.6489 19.5798 17.2988 18.0518L14.1541 15.6157C13.3125 16.2025 12.1831 16.6122 10.6993 16.6122C8.06398 16.6122 5.82726 14.8738 5.02993 12.471L4.91306 12.4809L1.83688 14.8616L1.79665 14.9734C3.43543 18.2289 6.80161 20.4657 10.6993 20.4657Z" fill="#34A853"/>
<path d="M5.02993 12.471C4.81955 11.8509 4.6978 11.1865 4.6978 10.5C4.6978 9.81345 4.81955 9.1491 5.01886 8.52902L5.01329 8.39696L1.89856 5.97803L1.79665 6.0265C1.12123 7.37742 0.733673 8.89444 0.733673 10.5C0.733673 12.1056 1.12123 13.6225 1.79665 14.9734L5.02993 12.471Z" fill="#FBBC05"/>
<path d="M10.6993 4.38772C12.5706 4.38772 13.8329 5.19604 14.5527 5.87154L17.3652 3.12543C15.6379 1.51986 13.39 0.534363 10.6993 0.534363C6.80161 0.534363 3.43543 2.77108 1.79665 6.0265L5.01886 8.52902C5.82726 6.12619 8.06398 4.38772 10.6993 4.38772Z" fill="#EB4335"/>
</svg>
