<svg width="26" height="25" viewBox="0 0 26 25" fill="none" xmlns="http://www.w3.org/2000/svg">
<path d="M6.05461 6.58368C7.9 4.7383 9.96112 3.3244 11.3552 2.46808C12.3713 1.84397 13.6286 1.84397 14.6447 2.46808C16.0388 3.3244 18.0999 4.7383 19.9454 6.58368C23.9463 10.5847 23.7338 12.8976 23.7338 16.686C23.7338 18.4663 23.5942 19.9678 23.4465 21.0593C23.2909 22.2077 22.2893 23 21.1304 23H19.314C17.9191 23 16.7884 21.8693 16.7884 20.4744V17.9488C16.7884 16.944 16.3892 15.9805 15.6788 15.2701C14.9683 14.5596 14.0047 14.1604 13 14.1604C11.9952 14.1604 11.0317 14.5596 10.3212 15.2701C9.61073 15.9805 9.2116 16.944 9.2116 17.9488V20.4744C9.2116 21.8693 8.08086 23 6.68601 23H4.86956C3.71064 23 2.70903 22.2077 2.55351 21.0592C2.40568 19.9678 2.26625 18.4663 2.26625 16.686C2.26625 12.8976 2.05359 10.5847 6.05461 6.58368Z" stroke="#252422" stroke-width="2" stroke-linecap="round" stroke-linejoin="round"/>
</svg>
