<svg width="25" height="24" viewBox="0 0 25 24" fill="none" xmlns="http://www.w3.org/2000/svg">
<path d="M5.55461 6.08368C7.4 4.2383 9.46112 2.8244 10.8552 1.96808C11.8713 1.34397 13.1286 1.34397 14.1447 1.96808C15.5388 2.8244 17.5999 4.2383 19.4454 6.08368C23.4463 10.0847 23.2338 12.3976 23.2338 16.186C23.2338 17.9663 23.0942 19.4678 22.9465 20.5593C22.7909 21.7077 21.7893 22.5 20.6304 22.5H18.814C17.4191 22.5 16.2884 21.3693 16.2884 19.9744V17.4488C16.2884 16.444 15.8892 15.4805 15.1788 14.7701C14.4683 14.0596 13.5047 13.6604 12.5 13.6604C11.4952 13.6604 10.5317 14.0596 9.82119 14.7701C9.11073 15.4805 8.7116 16.444 8.7116 17.4488V19.9744C8.7116 21.3693 7.58086 22.5 6.18601 22.5H4.36956C3.21064 22.5 2.20903 21.7077 2.05351 20.5592C1.90568 19.4678 1.76625 17.9663 1.76625 16.186C1.76625 12.3976 1.55359 10.0847 5.55461 6.08368Z" fill="#F75600" stroke="#F75600" stroke-width="2" stroke-linecap="round" stroke-linejoin="round"/>
</svg>
