<svg width="23" height="22" viewBox="0 0 23 22" fill="none" xmlns="http://www.w3.org/2000/svg">
<path d="M9.28949 0.5H13.7105C14.2968 0.5 14.8591 0.732894 15.2736 1.14745C15.6882 1.562 15.9211 2.12426 15.9211 2.71053V4.92105H20.3421C20.9284 4.92105 21.4906 5.15395 21.9052 5.5685C22.3198 5.98305 22.5526 6.54531 22.5526 7.13158V19.2895C22.5526 19.8757 22.3198 20.438 21.9052 20.8526C21.4906 21.2671 20.9284 21.5 20.3421 21.5H2.65791C1.43107 21.5 0.447388 20.5053 0.447388 19.2895V7.13158C0.447388 5.90474 1.43107 4.92105 2.65791 4.92105H7.07897V2.71053C7.07897 1.48368 8.06265 0.5 9.28949 0.5ZM13.7105 4.92105V2.71053H9.28949V4.92105H13.7105Z" fill="#F75600"/>
</svg>
