<svg width="24" height="23" viewBox="0 0 24 23" fill="none" xmlns="http://www.w3.org/2000/svg">
<path d="M20.8421 5.42105C21.4832 5.42105 22.0026 5.64211 22.4116 6.07316C22.8316 6.52632 23.0527 7.02368 23.0527 7.63158V19.7895C23.0527 20.3974 22.8316 20.8947 22.4116 21.3479C22.0026 21.7789 21.4832 22 20.8421 22H3.15791C2.51686 22 1.99739 21.7789 1.58844 21.3479C1.16844 20.8947 0.947388 20.3974 0.947388 19.7895V7.63158C0.947388 7.02368 1.16844 6.52632 1.58844 6.07316C1.99739 5.64211 2.51686 5.42105 3.15791 5.42105H7.57897V3.21053C7.57897 2.56947 7.80002 2.05 8.22002 1.64105C8.62897 1.22105 9.14844 1 9.78949 1H14.2105C14.8516 1 15.3711 1.22105 15.78 1.64105C16.2 2.05 16.4211 2.56947 16.4211 3.21053V5.42105H20.8421ZM3.15791 7.63158V19.7895H20.8421V7.63158H3.15791ZM14.2105 5.42105V3.21053H9.78949V5.42105H14.2105Z" fill="#252422"/>
</svg>
